<?xml version="1.0" encoding="utf-8"?>
<!-- Generator: Adobe Illustrator 24.0.0, SVG Export Plug-In . SVG Version: 6.00 Build 0)  -->
<svg version="1.1" xmlns="http://www.w3.org/2000/svg" xmlns:xlink="http://www.w3.org/1999/xlink" x="0px" y="0px"
	 viewBox="0 0 595.3 595.3" style="enable-background:new 0 0 595.3 595.3;" xml:space="preserve">
<style type="text/css">
	.st0{fill-rule:evenodd;clip-rule:evenodd;fill:url(#SVGID_1_);}
	.st1{fill-rule:evenodd;clip-rule:evenodd;fill:url(#SVGID_2_);}
	.st2{fill-rule:evenodd;clip-rule:evenodd;fill:#000000;}
	.st3{fill-rule:evenodd;clip-rule:evenodd;fill:url(#SVGID_3_);}
	.st4{fill-rule:evenodd;clip-rule:evenodd;fill:url(#SVGID_4_);}
	.st5{fill-rule:evenodd;clip-rule:evenodd;fill:#FFFFFF;}
	.st6{fill-rule:evenodd;clip-rule:evenodd;fill:url(#SVGID_5_);}
	.st7{fill-rule:evenodd;clip-rule:evenodd;fill:url(#SVGID_6_);}
	.st8{fill-rule:evenodd;clip-rule:evenodd;fill:url(#SVGID_7_);}
	.st9{fill-rule:evenodd;clip-rule:evenodd;fill:url(#SVGID_8_);}
</style>
<g id="_x31_">
</g>
<g id="_x31__1_">
</g>
<g id="_x31__2_">
	<g>
		<path class="st2" d="M392.2,240.3c-5.3,0-10.1,2.2-13.6,5.7c-3.5,3.5-5.7,8.3-5.7,13.6v76c0,5.3,2.2,10.1,5.7,13.6
			c3.5,3.5,8.3,5.7,13.6,5.7c5.3,0,10.1-2.2,13.6-5.7c3.5-3.5,5.7-8.3,5.7-13.6v-11.7h-12.2v22.7c0,1.9-0.8,3.7-2.1,5
			c-1.3,1.3-3,2.1-5,2.1h0c-1.9,0-3.7-0.8-5-2.1c-1.3-1.3-2.1-3-2.1-5v-97.9c0-1.9,0.8-3.7,2.1-5c1.3-1.3,3-2.1,5-2.1h0
			c1.9,0,3.7,0.8,5,2.1c1.3,1.3,2.1,3,2.1,5V302h12.2v-42.5c0-5.3-2.2-10.1-5.7-13.6C402.3,242.4,397.5,240.3,392.2,240.3
			L392.2,240.3z M241,293.1c2.5,0,4.5,2,4.5,4.5c0,2.5-2,4.5-4.5,4.5c-0.6,0-1.3-0.1-1.8-0.4c0.8,0.9,1.7,1.8,2.6,2.3
			c1,0.6,2.2,0.9,3.4,0.9h0c1.9,0,3.7-0.8,5-2.1c1.3-1.3,2.1-3,2.1-5v-26.8h0v-22.3c0-1.9-0.8-3.7-2.1-5c-1.3-1.3-3-2.1-5-2.1h0
			c-1.9,0-3.7,0.8-5,2.1c-1.3,1.3-2.1,3-2.1,5v45.2v0.3C238.9,293.5,239.9,293.1,241,293.1L241,293.1z M245.2,240.3
			c5.3,0,10.1,2.2,13.6,5.7c3.5,3.5,5.7,8.3,5.7,13.6v22.1h0v5.2c0,5.3-2.2,10.1-5.7,13.6c-3.5,3.5-8.3,5.7-13.6,5.7
			c-1,0-1.9-0.1-2.9-0.2c-1-0.1-1.9-0.4-2.8-0.6l-1.4-0.4v49.9h-12.2V287l0,0l0-0.2h0v-15.9h0v-11.4c0-5.3,2.2-10.1,5.7-13.6
			C235.1,242.4,239.9,240.3,245.2,240.3L245.2,240.3z M294.2,354.7c5.3,0,10.1-2.2,13.6-5.7c3.5-3.5,5.7-8.3,5.7-13.6v-95.2h-12.2
			v57.4c0,1.9-0.8,3.7-2.1,5c-1.3,1.3-3,2.1-5,2.1h0c-1.9,0-3.7-0.8-5-2.1c-1.3-1.3-2.1-3-2.1-5v-57.4h-12.2v46.5
			c0,5.3,2.2,10.1,5.7,13.6c3.5,3.5,8.3,5.7,13.6,5.7c1,0,1.9-0.1,2.9-0.2c1-0.1,1.9-0.4,2.8-0.6l1.4-0.4v41.7c0,1.9-0.8,3.7-2.1,5
			c-1.3,1.3-3,2.1-5,2.1h0c-1.9,0-3.7-0.8-5-2.1c-1.3-1.3-2.1-3-2.1-5v-22.7h-12.2v11.7c0,5.3,2.2,10.1,5.7,13.6
			C284.1,352.6,288.9,354.7,294.2,354.7L294.2,354.7z M343.2,240.3c-5.3,0-10.1,2.2-13.6,5.7c-3.5,3.5-5.7,8.3-5.7,13.6v76
			c0,5.3,2.2,10.1,5.7,13.6c3.5,3.5,8.3,5.7,13.6,5.7c5.3,0,10.1-2.2,13.6-5.7c3.5-3.5,5.7-8.3,5.7-13.6v-11.7h-12.2v22.7
			c0,1.9-0.8,3.7-2.1,5c-1.3,1.3-3,2.1-5,2.1h0c-1.9,0-3.7-0.8-5-2.1c-1.3-1.3-2.1-3-2.1-5v-97.9c0-1.9,0.8-3.7,2.1-5
			c1.3-1.3,3-2.1,5-2.1h0c1.9,0,3.7,0.8,5,2.1c1.3,1.3,2.1,3,2.1,5V302h12.2v-42.5c0-5.3-2.2-10.1-5.7-13.6
			C353.3,242.4,348.5,240.3,343.2,240.3L343.2,240.3z M441.2,240.3c-5.3,0-10.1,2.2-13.6,5.7c-3.5,3.5-5.7,8.3-5.7,13.6v76
			c0,5.3,2.2,10.1,5.7,13.6c3.5,3.5,8.3,5.7,13.6,5.7c5.3,0,10.1-2.2,13.6-5.7c3.5-3.5,5.7-8.3,5.7-13.6v-76
			c0-5.3-2.2-10.1-5.7-13.6C451.3,242.4,446.5,240.3,441.2,240.3L441.2,240.3z M441.2,241.5L441.2,241.5c1.9,0,3.7,0.8,5,2.1
			c1.3,1.3,2.1,3,2.1,5v97.9c0,1.9-0.8,3.7-2.1,5c-1.3,1.3-3,2.1-5,2.1h0c-1.9,0-3.7-0.8-5-2.1c-1.3-1.3-2.1-3-2.1-5v-97.9
			c0-1.9,0.8-3.7,2.1-5C437.5,242.3,439.3,241.5,441.2,241.5z"/>
		<path class="st2" d="M153.2,232h8.7c19.1,0,34.8,15.7,34.8,34.8v0.3v61v0.3c0,19.1-15.7,34.8-34.8,34.8h-8.7
			c-5.3,0-10.4-1.2-14.9-3.4c0-24.3,0-48.5,0-72.8l0,0l0-0.2h0V271h0v-11.4c0-5.3,2.2-10.1,5.7-13.6c3.5-3.5,8.3-5.7,13.6-5.7
			c5.3,0,10.1,2.2,13.6,5.7c3.5,3.5,5.7,8.3,5.7,13.6v22.1h0v5.2c0,5.3-2.2,10.1-5.7,13.6c-3.5,3.5-8.3,5.7-13.6,5.7
			c-1,0-1.9-0.1-2.9-0.2c-1-0.1-1.9-0.4-2.8-0.6l-1.4-0.4v55.3c2.2,0.6,4.6,0.9,7,0.9h0c14.9,0,27.1-12,27.1-26.8v-73.4
			c0-14.7-12.2-26.8-27.1-26.8h0c-14.9,0-27.1,12-27.1,26.8v73.4c0,0.3,0,0.6,0,1v19.5c-7.4-6.4-12.1-15.8-12.1-26.3v-0.3v-61v-0.3
			C118.4,247.7,134,232,153.2,232L153.2,232z M153.3,293.2c2.5,0,4.5,2,4.5,4.5c0,2.5-2,4.5-4.5,4.5c-0.6,0-1.3-0.1-1.8-0.4
			c0.8,0.9,1.7,1.8,2.6,2.3c1,0.6,2.2,0.9,3.4,0.9h0c1.9,0,3.7-0.8,5-2.1c1.3-1.3,2.1-3,2.1-5V271h0v-22.3c0-1.9-0.8-3.7-2.1-5
			c-1.3-1.3-3-2.1-5-2.1h0c-1.9,0-3.7,0.8-5,2.1c-1.3,1.3-2.1,3-2.1,5v45.2v0.3C151.3,293.6,152.2,293.2,153.3,293.2z"/>
	</g>
</g>
<g id="_x31__3_">
</g>
<g id="_x31__4_">
</g>
<g id="_x31__5_">
</g>
<g id="_x31__6_">
</g>
<g id="_x31__7_">
</g>
<g id="_x31__8_">
</g>
<g id="_x31__9_">
</g>
<g id="_x31__10_">
</g>
<g id="_x31__11_">
</g>
<g id="_x31__12_">
</g>
<g id="_x31__13_">
</g>
<g id="_x31__14_">
</g>
</svg>
