<?xml version="1.0" encoding="utf-8"?>
<!-- Generator: Adobe Illustrator 24.0.0, SVG Export Plug-In . SVG Version: 6.00 Build 0)  -->
<svg version="1.1" xmlns="http://www.w3.org/2000/svg" xmlns:xlink="http://www.w3.org/1999/xlink" x="0px" y="0px"
	 viewBox="0 0 595 595" style="enable-background:new 0 0 595 595;" xml:space="preserve">
<style type="text/css">
	.st0{fill-rule:evenodd;clip-rule:evenodd;fill:url(#SVGID_1_);}
	.st1{fill-rule:evenodd;clip-rule:evenodd;fill:url(#SVGID_2_);}
	.st2{fill-rule:evenodd;clip-rule:evenodd;}
	.st3{fill-rule:evenodd;clip-rule:evenodd;fill:url(#SVGID_3_);}
	.st4{fill-rule:evenodd;clip-rule:evenodd;fill:url(#SVGID_4_);}
	.st5{fill-rule:evenodd;clip-rule:evenodd;fill:#FFFFFF;}
	.st6{fill-rule:evenodd;clip-rule:evenodd;fill:url(#SVGID_5_);}
	.st7{fill-rule:evenodd;clip-rule:evenodd;fill:url(#SVGID_6_);}
	.st8{fill-rule:evenodd;clip-rule:evenodd;fill:url(#SVGID_7_);}
	.st9{fill-rule:evenodd;clip-rule:evenodd;fill:url(#SVGID_8_);}
</style>
<g id="_x31_">
	<g>
		<linearGradient id="SVGID_1_" gradientUnits="userSpaceOnUse" x1="895.0656" y1="-47.1803" x2="205.907" y2="382.8954">
			<stop  offset="0" style="stop-color:#EECE81"/>
			<stop  offset="0.2" style="stop-color:#D8AE74"/>
			<stop  offset="0.33" style="stop-color:#E6C87E"/>
			<stop  offset="0.48" style="stop-color:#E2B87A"/>
			<stop  offset="0.66" style="stop-color:#BF995C"/>
			<stop  offset="0.77" style="stop-color:#F8D98F"/>
			<stop  offset="1" style="stop-color:#B88D43"/>
		</linearGradient>
		<path class="st0" d="M392.2,240c-5.3,0-10.1,2.2-13.6,5.7c-3.5,3.5-5.7,8.3-5.7,13.6v76c0,5.3,2.2,10.1,5.7,13.6
			c3.5,3.5,8.3,5.7,13.6,5.7c5.3,0,10.1-2.2,13.6-5.7c3.5-3.5,5.7-8.3,5.7-13.6v-11.7h-12.2v22.7c0,1.9-0.8,3.7-2.1,5
			c-1.3,1.3-3,2.1-5,2.1h0c-1.9,0-3.7-0.8-5-2.1c-1.3-1.3-2.1-3-2.1-5v-97.9c0-1.9,0.8-3.7,2.1-5c1.3-1.3,3-2.1,5-2.1h0
			c1.9,0,3.7,0.8,5,2.1c1.3,1.3,2.1,3,2.1,5v53.4h12.2v-42.5c0-5.3-2.2-10.1-5.7-13.6C402.3,242.1,397.5,240,392.2,240L392.2,240z
			 M240.9,292.8c2.5,0,4.5,2,4.5,4.5c0,2.5-2,4.5-4.5,4.5c-0.6,0-1.3-0.1-1.8-0.4c0.8,0.9,1.7,1.8,2.6,2.3c1,0.6,2.2,0.9,3.4,0.9h0
			c1.9,0,3.7-0.8,5-2.1c1.3-1.3,2.1-3,2.1-5v-26.8h0v-22.3c0-1.9-0.8-3.7-2.1-5c-1.3-1.3-3-2.1-5-2.1h0c-1.9,0-3.7,0.8-5,2.1
			c-1.3,1.3-2.1,3-2.1,5v45.2v0.3C238.9,293.2,239.9,292.8,240.9,292.8L240.9,292.8z M245.2,240c5.3,0,10.1,2.2,13.6,5.7
			c3.5,3.5,5.7,8.3,5.7,13.6v22.1h0v5.2c0,5.3-2.2,10.1-5.7,13.6c-3.5,3.5-8.3,5.7-13.6,5.7c-1,0-1.9-0.1-2.9-0.2
			c-1-0.1-1.9-0.4-2.8-0.6l-1.4-0.4v49.9h-12.2v-67.7l0,0l0-0.2h0v-15.9h0v-11.4c0-5.3,2.2-10.1,5.7-13.6
			C235.1,242.1,239.9,240,245.2,240L245.2,240z M294.2,354.5c5.3,0,10.1-2.2,13.6-5.7c3.5-3.5,5.7-8.3,5.7-13.6V240h-12.2v57.4
			c0,1.9-0.8,3.7-2.1,5c-1.3,1.3-3,2.1-5,2.1h0c-1.9,0-3.7-0.8-5-2.1c-1.3-1.3-2.1-3-2.1-5V240h-12.2v46.5c0,5.3,2.2,10.1,5.7,13.6
			c3.5,3.5,8.3,5.7,13.6,5.7c1,0,1.9-0.1,2.9-0.2c1-0.1,1.9-0.4,2.8-0.6l1.4-0.4v41.7c0,1.9-0.8,3.7-2.1,5c-1.3,1.3-3,2.1-5,2.1h0
			c-1.9,0-3.7-0.8-5-2.1c-1.3-1.3-2.1-3-2.1-5v-22.7h-12.2v11.7c0,5.3,2.2,10.1,5.7,13.6C284.1,352.3,288.9,354.5,294.2,354.5
			L294.2,354.5z M343.2,240c-5.3,0-10.1,2.2-13.6,5.7c-3.5,3.5-5.7,8.3-5.7,13.6v76c0,5.3,2.2,10.1,5.7,13.6
			c3.5,3.5,8.3,5.7,13.6,5.7c5.3,0,10.1-2.2,13.6-5.7c3.5-3.5,5.7-8.3,5.7-13.6v-11.7h-12.2v22.7c0,1.9-0.8,3.7-2.1,5
			c-1.3,1.3-3,2.1-5,2.1h0c-1.9,0-3.7-0.8-5-2.1c-1.3-1.3-2.1-3-2.1-5v-97.9c0-1.9,0.8-3.7,2.1-5c1.3-1.3,3-2.1,5-2.1h0
			c1.9,0,3.7,0.8,5,2.1c1.3,1.3,2.1,3,2.1,5v53.4h12.2v-42.5c0-5.3-2.2-10.1-5.7-13.6C353.3,242.1,348.5,240,343.2,240L343.2,240z
			 M441.2,240c-5.3,0-10.1,2.2-13.6,5.7c-3.5,3.5-5.7,8.3-5.7,13.6v76c0,5.3,2.2,10.1,5.7,13.6c3.5,3.5,8.3,5.7,13.6,5.7
			c5.3,0,10.1-2.2,13.6-5.7c3.5-3.5,5.7-8.3,5.7-13.6v-76c0-5.3-2.2-10.1-5.7-13.6C451.3,242.1,446.5,240,441.2,240L441.2,240z
			 M441.2,241.2L441.2,241.2c1.9,0,3.7,0.8,5,2.1c1.3,1.3,2.1,3,2.1,5v97.9c0,1.9-0.8,3.7-2.1,5c-1.3,1.3-3,2.1-5,2.1h0
			c-1.9,0-3.7-0.8-5-2.1c-1.3-1.3-2.1-3-2.1-5v-97.9c0-1.9,0.8-3.7,2.1-5C437.5,242,439.3,241.2,441.2,241.2z"/>
		<linearGradient id="SVGID_2_" gradientUnits="userSpaceOnUse" x1="332.7398" y1="74.6184" x2="104.9784" y2="364.2012">
			<stop  offset="0" style="stop-color:#EECE81"/>
			<stop  offset="0.2" style="stop-color:#D8AE74"/>
			<stop  offset="0.33" style="stop-color:#E6C87E"/>
			<stop  offset="0.48" style="stop-color:#E2B87A"/>
			<stop  offset="0.66" style="stop-color:#BF995C"/>
			<stop  offset="0.77" style="stop-color:#F8D98F"/>
			<stop  offset="1" style="stop-color:#B88D43"/>
		</linearGradient>
		<path class="st1" d="M153.2,231.8h8.7c19.1,0,34.8,15.7,34.8,34.8v0.3v61v0.3c0,19.1-15.7,34.8-34.8,34.8h-8.7
			c-5.3,0-10.4-1.2-14.9-3.4c0-24.3,0-48.5,0-72.8l0,0l0-0.2h0v-15.9h0v-11.4c0-5.3,2.2-10.1,5.7-13.6c3.5-3.5,8.3-5.7,13.6-5.7
			c5.3,0,10.1,2.2,13.6,5.7c3.5,3.5,5.7,8.3,5.7,13.6v22.1h0v5.2c0,5.3-2.2,10.1-5.7,13.6c-3.5,3.5-8.3,5.7-13.6,5.7
			c-1,0-1.9-0.1-2.9-0.2c-1-0.1-1.9-0.4-2.8-0.6l-1.4-0.4v55.3c2.2,0.6,4.6,0.9,7,0.9h0c14.9,0,27.1-12,27.1-26.8v-73.4
			c0-14.7-12.2-26.8-27.1-26.8h0c-14.9,0-27.1,12-27.1,26.8v73.4c0,0.3,0,0.6,0,1v19.5c-7.4-6.4-12.1-15.8-12.1-26.3v-0.3v-61v-0.3
			C118.4,247.4,134,231.8,153.2,231.8L153.2,231.8z M153.3,292.9c2.5,0,4.5,2,4.5,4.5c0,2.5-2,4.5-4.5,4.5c-0.6,0-1.3-0.1-1.8-0.4
			c0.8,0.9,1.7,1.8,2.6,2.3c1,0.6,2.2,0.9,3.4,0.9h0c1.9,0,3.7-0.8,5-2.1c1.3-1.3,2.1-3,2.1-5v-26.8h0v-22.3c0-1.9-0.8-3.7-2.1-5
			c-1.3-1.3-3-2.1-5-2.1h0c-1.9,0-3.7,0.8-5,2.1c-1.3,1.3-2.1,3-2.1,5v45.2v0.3C151.3,293.3,152.2,292.9,153.3,292.9z"/>
	</g>
</g>
<g id="_x31__1_">
</g>
<g id="_x31__2_">
</g>
<g id="_x31__3_">
</g>
<g id="_x31__4_">
</g>
<g id="_x31__5_">
</g>
<g id="_x31__6_">
</g>
<g id="_x31__7_">
</g>
<g id="_x31__8_">
</g>
<g id="_x31__9_">
</g>
<g id="_x31__10_">
</g>
<g id="_x31__11_">
</g>
<g id="_x31__12_">
</g>
<g id="_x31__13_">
</g>
<g id="_x31__14_">
</g>
</svg>
